Coordinates
version=1
nRows=19
nColumns=36
inDegrees=yes

Units are S.I. units (second, meters, Newtons, ...)
If the header above contains a line with 'inDegrees', this indicates whether rotational values are in degrees (yes) or radians (no).

endheader
time	pelvis_tilt	pelvis_list	pelvis_rotation	pelvis_tx	pelvis_ty	pelvis_tz	hip_flexion_r	hip_adduction_r	hip_rotation_r	knee_angle_r	knee_angle_r_beta	ankle_angle_r	subtalar_angle_r	mtp_angle_r	hip_flexion_l	hip_adduction_l	hip_rotation_l	knee_angle_l	knee_angle_l_beta	ankle_angle_l	subtalar_angle_l	mtp_angle_l	lumbar_extension	lumbar_bending	lumbar_rotation	arm_flex_r	arm_add_r	arm_rot_r	elbow_flex_r	pro_sup_r	arm_flex_l	arm_add_l	arm_rot_l	elbow_flex_l	pro_sup_l
      5.98333330	    -35.16372844	      3.90284657	     -2.33278251	     -0.01434948	      0.65094648	     -0.07137539	     98.71111928	    -11.88833746	      2.05921319	     86.39541438	      1.50788444	     35.91321626	      5.79792440	     -7.49999987	     96.71039398	    -12.06537224	     -6.36908969	     88.13155243	      1.53818576	     32.93091560	     10.83756252	     -7.49999987	    -29.57698547	     -0.13378232	      8.05637468	     28.28946205	    -22.27474423	     -7.06665831	     71.43843612	     93.75283749	     35.01052201	     -7.29569428	     13.35955118	     68.66455287	     95.82148733
      6.00000000	    -34.82295151	      4.26173044	     -2.20484283	     -0.02407332	      0.64880975	     -0.07795318	     99.69316435	    -12.12492894	      2.76244421	     87.54325789	      1.52791809	     35.93447530	      6.00477582	     -7.49999987	     97.29137669	    -11.68979907	     -6.54496863	     88.90694279	      1.55171888	     32.57434653	     10.48976458	     -7.49999987	    -28.91939310	     -0.28653713	      7.83279615	     28.20745053	    -22.21690158	     -7.24963784	     72.12278203	     91.69408538	     34.53017521	     -7.54519267	     13.72133144	     69.62496787	     93.80939839
      6.01666670	    -34.27816187	      4.34457390	     -2.26279353	     -0.02443191	      0.64979364	     -0.07840545	     99.63655506	    -12.11695699	      3.09693779	     87.98342155	      1.53560039	     36.19613445	      5.82748439	     -7.49999987	     97.09113007	    -11.41647027	     -6.52220819	     89.29547110	      1.55849998	     32.67722075	     10.25275953	     -7.49999987	    -28.66530445	     -0.23855887	      7.71972081	     27.83147647	    -22.26929569	     -7.26455122	     72.25192002	     90.92018634	     33.62479487	     -7.74835307	     13.50173728	     69.86102822	     93.03985829
      6.03333330	    -33.95993407	      4.50902359	     -2.10659076	     -0.02506176	      0.64969374	     -0.07793287	     99.69218267	    -12.39845183	      3.44143876	     88.24438052	      1.54015499	     36.38348411	      6.34496440	     -7.49999987	     96.94282683	    -10.92763151	     -6.64951021	     89.35481413	      1.55953571	     32.59265145	     10.66709691	     -7.49999987	    -28.10304515	     -0.24312738	      7.32537190	     26.94910729	    -21.94448033	     -7.28792528	     72.69668806	     90.29083805	     32.55215554	     -7.86758641	     13.32957139	     70.37263704	     92.41745063
      6.05000000	    -33.42828064	      4.59584885	     -2.02297000	     -0.02634122	      0.65057061	     -0.07901749	     99.38316189	    -12.55473777	      3.72664528	     88.33251349	      1.54169320	     36.56500914	      6.53167503	     -7.49999987	     96.46739827	    -10.48199597	     -6.68170097	     89.29467999	      1.55848617	     32.44865345	     10.57677004	     -7.49999987	    -27.75410558	     -0.10606459	      7.02348199	     26.33074387	    -21.69796757	     -7.34061108	     73.22706329	     89.54007250	     31.85341679	     -7.94627806	     13.30517616	     70.99041236	     91.57449274
      6.06666670	    -32.81755687	      4.48517613	     -2.00910206	     -0.02727511	      0.65083225	     -0.07849382	     98.99895466	    -12.64110551	      3.74447345	     88.48905101	      1.54442529	     36.99099049	      6.96681444	     -7.49999987	     96.07069218	    -10.25094367	     -6.59030926	     89.42064480	      1.56068467	     32.63790800	     10.72422799	     -7.49999987	    -27.78413277	      0.12545934	      6.84785452	     25.57876550	    -21.66017332	     -7.31290630	     74.07264729	     89.01911745	     30.94648163	     -8.27031597	     13.20667322	     71.39957829	     90.83951451
      6.08333330	    -31.39919565	      4.36204169	     -2.10774431	     -0.02883619	      0.65986306	     -0.08040719	     97.54832328	    -12.58888868	      3.82504585	     88.11446257	      1.53788749	     36.86408596	      6.70529166	     -7.49999987	     94.66190389	    -10.02102866	     -6.50506624	     89.18310257	      1.55653878	     32.34548661	     10.61991349	     -7.49999987	    -28.54310415	      0.13760730	      7.60483168	     24.55131327	    -21.99110210	     -8.67679093	     75.13042145	     91.95530785	     31.13221130	     -7.88569573	     13.99621598	     70.81806218	     90.15461019
      6.10000000	    -30.21603937	      4.21389681	     -2.25693327	     -0.03074895	      0.65356875	     -0.07896744	     96.67730744	    -12.51265689	      3.83796493	     88.39860080	      1.54284664	     36.82555617	      6.58474333	     -7.49999987	     93.96301811	     -9.98820333	     -6.37218582	     89.55841783	      1.56308926	     32.34340919	     10.55909530	     -7.49999987	    -28.58224275	      0.30720696	      7.64436523	     23.83496478	    -21.66346145	     -8.47209223	     75.17911106	     91.01392412	     30.29695920	     -7.91318167	     14.01341097	     71.26482564	     89.12182036
      6.11666670	    -29.32662909	      4.13498875	     -2.36852152	     -0.04101227	      0.65304443	     -0.08636626	     96.49966247	    -12.41317814	      4.06157299	     88.83107540	      1.55039474	     36.56025251	      6.33558860	     -7.49999987	     93.87377457	     -9.84720408	     -6.17284026	     90.06659284	      1.57195859	     31.89309272	     10.45938131	     -7.49999987	    -28.70084907	      0.45818862	      7.63901848	     23.17894635	    -21.65094693	     -8.46823703	     75.30107391	     90.86062414	     29.07096964	     -7.92290827	     13.97211043	     71.25493408	     88.88483684
      6.13333330	    -28.87022530	      3.91253224	     -2.19057322	     -0.05269301	      0.65806738	     -0.08065296	     96.41840068	    -12.45300942	      3.97236590	     88.75715221	      1.54910454	     36.22456493	      6.07116025	     -7.49999987	     94.05481918	     -9.65454521	     -5.92571798	     89.97678565	      1.57039116	     31.20392377	     10.54102753	     -7.49999987	    -28.95088068	      0.52917856	      7.61379324	     22.94154265	    -21.48416981	     -8.39073566	     75.56103887	     90.67545501	     29.04411573	     -7.66307021	     13.84071895	     71.67341146	     88.61884552
      6.15000000	    -28.30690338	      3.65751933	     -2.28193776	     -0.05261283	      0.65878345	     -0.08137752	     95.94047255	    -12.22307710	      3.83900151	     88.41729622	      1.54317293	     35.79377728	      5.65343953	     -7.49999987	     93.94068305	     -9.55534517	     -5.61194443	     89.84782868	      1.56814044	     30.49891816	     10.35583284	     -7.49999987	    -29.04260821	      0.63548898	      7.66592590	     22.07168454	    -21.18283017	     -8.27449245	     76.45306399	     89.89936767	     27.86474083	     -7.44929516	     12.90443472	     72.58124548	     87.45436825
      6.16666670	    -27.17984124	      3.50948304	     -2.39748641	     -0.05347905	      0.65902173	     -0.08076355	     95.10220032	    -12.04821188	      3.85488387	     88.37457230	      1.54242726	     35.24457271	      5.16757203	     -7.49999987	     93.27921950	     -9.44851361	     -5.41423442	     89.86961110	      1.56852061	     29.92317742	      9.80712439	     -7.49999987	    -29.06702361	      0.56121532	      7.47487498	     20.77759166	    -20.27579991	     -8.00363710	     76.64214859	     88.94041395	     26.53344424	     -7.32721163	     12.29367194	     72.69823113	     86.32760439
      6.18333330	    -25.95474114	      3.47470664	     -2.47831187	     -0.04581876	      0.66156141	     -0.07398383	     94.03615923	    -11.76873182	      4.00380855	     88.44429450	      1.54364414	     34.82301883	      4.80156864	     -7.49999987	     92.24243387	     -9.49191563	     -5.47086141	     89.89622768	      1.56898516	     29.80291669	      9.72431565	     -7.49999987	    -29.08932526	      0.20156894	      7.73532504	     17.68849897	    -19.10485255	     -9.84844915	     79.24758799	     94.70077265	     24.54386585	     -6.99550223	     11.01842201	     73.64835736	     84.07150364
      6.20000000	    -24.70781160	      3.33986305	     -2.59650397	     -0.04793208	      0.66194178	     -0.07328924	     92.87530951	    -11.58807835	      3.92825710	     88.45840819	      1.54389047	     34.44633615	      4.43808760	     -7.49999987	     91.18991643	     -9.65473157	     -5.35670722	     89.89699845	      1.56899861	     29.54866170	      9.40013636	     -7.49999987	    -28.98988013	      0.06938859	      7.37530499	     16.35264733	    -18.20579607	     -9.60618370	     79.08350447	     93.58575005	     23.16345141	     -7.30803988	     10.20602196	     73.14021844	     82.90643311
      6.21666670	    -23.22110016	      3.37395557	     -2.84569071	     -0.05018209	      0.66364237	     -0.07370794	     91.58508247	    -11.31922339	      4.03064806	     88.46578921	      1.54401930	     33.93848126	      4.31415895	     -7.49999987	     89.83493502	     -9.96643770	     -5.48578174	     89.99630361	      1.57073181	     29.62243376	      9.77785502	     -7.49999987	    -29.02059749	     -0.23574199	      7.13612022	     15.33353906	    -17.39193674	     -9.74715939	     79.24210327	     92.50701365	     22.10468627	     -7.24394854	      8.61593312	     72.50489616	     81.51854096
      6.23333330	    -21.92223594	      3.15846629	     -3.07939685	     -0.05238495	      0.66421882	     -0.07303408	     90.29761972	    -11.05678911	      3.90438294	     88.46334751	      1.54397668	     33.41283134	      3.81480617	     -7.49999987	     88.69290504	    -10.27127469	     -5.34641625	     90.09856826	      1.57251667	     29.56517482	      9.69117938	     -7.49999987	    -28.60575396	     -0.24298795	      7.18118698	     14.54901603	    -16.82578155	     -9.98977832	     78.87098739	     91.75947026	     21.36626007	     -7.01089770	      7.68516604	     72.19325622	     80.33914122
      6.25000000	    -21.24527984	      2.99576493	     -3.26870498	     -0.05392976	      0.66472693	     -0.07363874	     89.61801261	    -10.78171704	      3.83611287	     88.52416903	      1.54503822	     33.16046281	      3.71028172	     -7.49999987	     88.11775717	    -10.55670525	     -5.26450036	     90.24025843	      1.57498963	     29.72478224	      9.75308318	     -7.49999987	    -27.99742919	     -0.15020485	      7.19825449	     13.75033525	    -16.44381478	    -10.07686737	     77.92271257	     91.08186251	     20.75345124	     -7.03894763	      7.28195270	     71.91255264	     79.46678932
      6.26666670	    -20.42693261	      2.88917024	     -3.49394794	     -0.06529693	      0.65610633	     -0.07903061	     89.34200189	    -10.59768310	      3.93299964	     88.86034262	      1.55090555	     32.91484060	      3.43928163	     -7.49999987	     87.99864825	    -10.74253532	     -5.14826719	     90.78686308	      1.58452968	     29.34177866	      9.45849497	     -7.49999987	    -27.12430669	      0.04448212	      7.02743862	     12.85281542	    -16.30735528	    -10.08503819	     77.40134136	     90.85916840	     20.25054054	     -7.17402288	      7.39830859	     71.73913512	     79.27530231
      6.28333330	    -19.60670516	      2.75790035	     -3.64776334	     -0.06615781	      0.65678505	     -0.07963167	     88.93022091	    -10.39210589	      4.05187090	     89.15871293	      1.55611310	     32.64163550	      2.91914255	     -7.49999987	     87.68702071	    -10.80300572	     -4.98046901	     91.19303873	      1.59161878	     28.98945851	      8.80409552	     -7.49999987	    -26.58440671	      0.25296591	      6.74358853	     12.10000341	    -16.28610693	    -10.07127229	     76.55764525	     89.70708391	     19.81884006	     -7.33443986	      7.30647655	     71.44007631	     78.47885030
